<svg id="Layer_1" data-name="Layer 1" xmlns="http://www.w3.org/2000/svg" viewBox="0 0 452.63 400"><defs><style>.cls-1{fill:#69c3a2;}</style></defs><title>youth</title><path class="cls-1" d="M279.17,395.77H168.79L145.33,262.45H302.62ZM180.3,382.06h87.36l18.63-105.9H161.67Z"/><path class="cls-1" d="M282.06,399.22H165.89L141.22,259H306.74Zm-110.37-6.9H276.27L298.51,265.9H149.44Zm98.87-6.81H177.4l-19.85-112.8H290.4Zm-87.36-6.9h81.56l17.42-99H165.78Z"/><path class="cls-1" d="M296.69,278.18H151.34a29.18,29.18,0,1,1,0-58.37H296.69a29.18,29.18,0,1,1,0,58.37ZM151.34,235.48a13.52,13.52,0,1,0,0,27H296.69a13.52,13.52,0,0,0,0-27Z"/><path class="cls-1" d="M296.69,281.63H151.34a32.64,32.64,0,1,1,0-65.27H296.69a32.64,32.64,0,0,1,0,65.27ZM151.34,223.26a25.73,25.73,0,1,0,0,51.47H296.69a25.73,25.73,0,0,0,0-51.47ZM296.69,266H151.34a17,17,0,1,1,0-33.95H296.69a17,17,0,1,1,0,33.95Zm-145.35-27a10.07,10.07,0,1,0,0,20.14H296.69a10.07,10.07,0,1,0,0-20.14Z"/><path class="cls-1" d="M331.79,131.53a7.39,7.39,0,0,0-5-2.82c-1.57,0-34.77-3.45-54.5,14.72-9.08,8.14-13.78,19.42-14.1,33.2l-26.63,19.42v-85.2c14.72-9.08,23.49-21.3,25.69-35.71,5.33-33.2-26.31-66.41-27.57-68a7.3,7.3,0,0,0-10-.31c-1.25,1.25-33.2,30.7-29.76,63.59,1.57,15.66,11,29.13,27.57,40.09v67l-31.64-31.32c2.51-16.29-.63-29.44-9.08-39.16C159.82,88,127.87,90.19,126.31,90.19a7.38,7.38,0,0,0-6.58,6.89c-.63,20.67,4.7,36.34,16.29,46.67C149.8,156,167.65,156.59,175.48,156l42,42v19.73L217.23,228h13.69v-14l34.77-25.37c12.53,4.7,23.81,4.39,34.14-.94,24.43-12.53,32.26-48.55,32.58-50.12C333.36,135,333,133.1,331.79,131.53ZM172.35,141.87c-6.58,0-18.17-1.25-26.63-8.77-6.89-6.26-10.65-16-11.59-28.51,8.77.31,23.49,2.51,32,12.22C171.41,122.45,173.6,131.22,172.35,141.87ZM225,98.64c-12.84-8.46-19.73-18.48-20.67-29.44-1.88-18.79,12.22-37.59,20-46.36,7.83,10,21.93,31,19.11,50.43C241.89,83.29,235.94,91.75,225,98.64Zm69.23,76.12q-9.4,4.7-21.61.94.94-13.63,9.4-21.61c10-9.08,25.37-11,34.77-11.28C313.31,153.15,305.79,168.5,294.2,174.76Z"/><path class="cls-1" d="M234.38,231.42H213.71l.3-13.81V199.37l-39.86-39.86c-7.37.38-25.86-.27-40.42-13.18-12.25-10.92-18.12-27.52-17.45-49.36A10.89,10.89,0,0,1,126,86.75l.66,0c10.69-.34,37.2.62,52.67,18.09,8.92,10.24,12.34,23.76,10.16,40.21L214,169.31V112.38c-16.67-11.46-25.93-25.45-27.55-41.58C183.21,39.8,209,12.3,217,4.61l.34-.33a10.78,10.78,0,0,1,14.76.46l.66.74c10,11.23,32.63,40.54,27.87,70.22-2.25,14.79-11.1,27.58-25.64,37.06v76.51l19.79-14.43c.68-14.12,5.78-25.55,15.18-34,17.58-16.18,45.23-16.31,56.31-15.63l.55,0a11,11,0,0,1,7.65,4.12h0a9,9,0,0,1,1.26,9.06c-.78,3.53-9.22,39.36-34.33,52.23-10.64,5.49-22.46,6.08-35.16,1.73l-31.87,23.26Zm-13.62-6.9h6.71V212.17l37.69-27.51,1.74.66c11.63,4.36,21.88,4.11,31.35-.78,23.36-12,30.71-47.37,30.78-47.73l.15-.53c.63-1.69.21-2.2-.09-2.58h0a3.91,3.91,0,0,0-2.65-1.54l-.59,0c-10.19-.64-35.59-.56-51.24,13.85-8.33,7.47-12.69,17.81-13,30.75l0,1.7L228.1,202.85V108.94l1.64-1c13.93-8.6,22-19.79,24.09-33.29,4.3-26.78-16.91-54.07-26.22-64.57-.33-.37-.54-.62-.63-.73a3.85,3.85,0,0,0-5,.11c-5.42,5.22-31.62,32-28.62,60.65,1.45,14.48,10.21,27.12,26,37.57l1.55,1v77.17l-38.77-38.39.27-1.74c2.33-15.15-.45-27.38-8.28-36.36-13.89-15.69-39.69-16-47.24-15.75l-.59,0a4,4,0,0,0-3.14,3.73c-.59,19.53,4.51,34.32,15.15,43.81,13.72,12.16,31.71,11.77,36.9,11.35l1.59-.13,44.11,44.11Zm62.13-43.7A38.47,38.47,0,0,1,271.57,179l-2.62-.8.19-2.73c.68-9.93,4.21-18,10.47-23.88,10.4-9.43,25.87-11.85,37-12.22l5-.17L320,143.9c-2,6-9.59,26-24.19,33.9l-.1,0A28.36,28.36,0,0,1,282.89,180.82Zm-6.57-7.68c6.15,1.42,11.49.94,16.29-1.44,9.72-5.28,16-17.54,19.06-25.11-9.19.85-20,3.39-27.37,10.06C279.9,160.8,277.26,166.23,276.32,173.13Zm-100.9-27.81h-3.07c-6.75,0-19.48-1.25-28.92-9.64-7.44-6.76-11.71-17.12-12.74-30.83l-.29-3.84,3.86.13c8.77.32,24.91,2.48,34.43,13.4,6,6.34,8.48,16,7.1,27.73ZM138,108.3c1.32,9.9,4.7,17.37,10.06,22.24,6.46,5.74,15.11,7.39,21.14,7.77.4-8.12-1.56-14.85-5.61-19.14C156.9,111.52,145.87,109.05,138,108.3Zm86.94-5.56-1.85-1.22c-13.69-9-21.17-19.79-22.21-32-2-20,12.24-39.25,20.91-49l2.75-3.08,2.54,3.25c8.66,11.09,22.75,32.72,19.8,53.05-1.74,11.19-8.49,20.53-20.06,27.8Zm-.75-74.4c-7,8.58-18,24.74-16.45,40.51.82,9.54,6.62,18.14,17.27,25.64,8.77-6,13.69-13.13,15-21.75C242.36,56.77,232.08,39.16,224.18,28.34Z"/></svg>