<?xml version="1.0" encoding="utf-8"?>
<!-- Generator: Adobe Illustrator 20.1.0, SVG Export Plug-In . SVG Version: 6.00 Build 0)  -->
<svg version="1.1" id="Layer_1" xmlns="http://www.w3.org/2000/svg" xmlns:xlink="http://www.w3.org/1999/xlink" x="0px" y="0px"
	 viewBox="0 0 683 600" style="enable-background:new 0 0 683 600;" xml:space="preserve">
<style type="text/css">
	.st0{fill:#52BFBE;}
</style>
<g>
	<path class="st0" d="M474.1,594.6H211.2v-25.9c0-52,42.3-94.3,94.3-94.3h74.3c52,0,94.3,42.3,94.3,94.3V594.6z M267.2,545.2H418
		c-7.9-12.8-22.1-21.3-38.2-21.3h-74.3C289.3,523.9,275.2,532.4,267.2,545.2z"/>
	<path class="st0" d="M338.8,498.2c-52.9,0-96-43.1-96-96c0-52.9,43.1-96,96-96c52.9,0,96,43.1,96,96
		C434.7,455.2,391.7,498.2,338.8,498.2z M338.8,355.6c-25.7,0-46.6,20.9-46.6,46.6c0,25.7,20.9,46.6,46.6,46.6
		c25.7,0,46.6-20.9,46.6-46.6C385.4,376.5,364.5,355.6,338.8,355.6z"/>
	<path class="st0" d="M176,328.6c-68.3,0-123.8-55.5-123.8-123.8S107.7,81.1,176,81.1c68.3,0,123.8,55.5,123.8,123.8
		S244.2,328.6,176,328.6z M176,130.4c-41,0-74.4,33.4-74.4,74.4s33.4,74.4,74.4,74.4c41,0,74.4-33.4,74.4-74.4S217,130.4,176,130.4z
		"/>
	<path class="st0" d="M496.3,253c-68.3,0-123.8-55.5-123.8-123.8C372.5,60.9,428,5.4,496.3,5.4s123.8,55.5,123.8,123.8
		C620.1,197.4,564.5,253,496.3,253z M496.3,54.8c-41,0-74.4,33.4-74.4,74.4c0,41,33.4,74.4,74.4,74.4s74.4-33.4,74.4-74.4
		C570.7,88.2,537.3,54.8,496.3,54.8z"/>
	<path class="st0" d="M674.7,594.6H458.6v-49.4h166.7v-199c0-39.7-32.3-72-72-72H450c-27.9,0-53.5,16.4-65.3,41.8l-0.1,0.3
		c-0.4,1.2-1.9,6.6-2.7,18.8l-49.3-3.5c1.2-16.8,3.8-29.5,7.6-37c20-42.4,63-69.8,109.8-69.8h103.3c66.9,0,121.4,54.5,121.4,121.4
		V594.6z M384.5,316.6l-0.4,0.8C384.2,317.2,384.3,316.9,384.5,316.6z"/>
	<path class="st0" d="M226.6,594.6H8.3V421.9c0-32.4,12.6-62.9,35.5-85.8c22.9-22.9,53.4-35.5,85.8-35.5c0,0,0,0,0,0H233
		c21.6,0,42.9,5.8,61.6,16.9l-25.1,42.5c-11.1-6.6-23.7-10-36.5-10H129.7h0c-19.2,0-37.3,7.5-50.9,21.1
		c-13.6,13.6-21.1,31.7-21.1,50.9v123.3h168.9V594.6z"/>
</g>
</svg>
