<?xml version="1.0" encoding="utf-8"?>
<!-- Generator: Adobe Illustrator 20.1.0, SVG Export Plug-In . SVG Version: 6.00 Build 0)  -->
<svg version="1.1" id="Layer_1" xmlns="http://www.w3.org/2000/svg" xmlns:xlink="http://www.w3.org/1999/xlink" x="0px" y="0px"
	 viewBox="0 0 683 600" style="enable-background:new 0 0 683 600;" xml:space="preserve">
<style type="text/css">
	.st0{fill:#C66F6F;}
</style>
<g>
	<path class="st0" d="M493.7,17.4h-76.1c-6.5,0-10.9,4.3-10.9,10.9c0,35.9-29.4,65.2-65.2,65.2s-65.2-29.4-65.2-65.2
		c0-6.5-4.3-10.9-10.9-10.9h-76.1c-6.5,0-10.9,4.3-10.9,10.9v152.2c0,35.9-29.4,65.2-65.2,65.2c-6.5,0-10.9,4.3-10.9,10.9v315.2
		c0,6.5,4.3,10.9,10.9,10.9h456.6c6.5,0,10.9-4.3,10.9-10.9V256.5c0-6.5-4.3-10.9-10.9-10.9c-35.9,0-65.2-29.4-65.2-65.2V28.2
		C504.6,21.7,500.2,17.4,493.7,17.4z M124.1,266.3c42.4-5.4,76.1-42.4,76.1-85.9V39.1h55.4c5.4,39.1,35.9,70.7,75,75v196.8H298
		c-6.5,0-10.9,4.3-10.9,10.9v10.9h-163V266.3z M374.1,332.6v21.7h-65.2v-21.7H374.1z M124.1,354.4h163.1v10.9
		c0,6.5,4.3,10.9,10.9,10.9h32.6v54.4h-32.6c-6.5,0-10.9,4.3-10.9,10.9v10.9H124.1V354.4z M374.1,452.2v21.7h-65.2v-21.7H374.1z
		 M330.6,560.9H124.1v-87h163.1v10.9c0,6.5,4.3,10.9,10.9,10.9h32.6v65.2H330.6z M558.9,560.9H352.4v-65.2H385
		c6.5,0,10.9-4.3,10.9-10.9v-10.9H559L558.9,560.9L558.9,560.9z M558.9,452.2h-163v-10.9c0-6.5-4.3-10.9-10.9-10.9h-32.6V376H385
		c6.5,0,10.9-4.3,10.9-10.9v-10.9H559L558.9,452.2L558.9,452.2z M558.9,266.3v66.3h-163v-10.9c0-6.5-4.3-10.9-10.9-10.9h-32.6V114.1
		c39.1-5.4,70.7-35.9,75-75h55.4v141.3C482.8,225,516.5,260.9,558.9,266.3z"/>
	<path class="st0" d="M569.8,595.3H113.2c-13.4,0-23.5-10.1-23.5-23.5V256.5c0-13.4,10.1-23.5,23.5-23.5c29,0,52.6-23.6,52.6-52.6
		V28.2c0-13.4,10.1-23.5,23.5-23.5h76.1c13.4,0,23.5,10.1,23.5,23.5c0,29,23.6,52.6,52.6,52.6s52.6-23.6,52.6-52.6
		c0-13.4,10.1-23.5,23.5-23.5h76.1c13.4,0,23.5,10.1,23.5,23.5v152.2c0,29,23.6,52.6,52.6,52.6c13.4,0,23.5,10.1,23.5,23.5v315.2
		C593.3,585.2,583.2,595.3,569.8,595.3z M365,548.2h181.2v-61.6H408.5c-0.9,12.5-10.7,21.7-23.5,21.7h-20V548.2z M136.8,548.2H318
		v-39.9h-19.9c-12.8,0-22.6-9.2-23.5-21.7H136.8V548.2z M408.5,439.5h137.8V367H408.5c-0.9,12.5-10.7,21.7-23.5,21.7h-20v29h20
		C397.8,417.8,407.6,427,408.5,439.5z M136.8,439.5h137.7c0.9-12.5,10.7-21.7,23.5-21.7h19.9v-29H298c-12.8,0-22.6-9.2-23.5-21.7
		H136.8V439.5z M408.5,319.9h137.8v-43.1c-44.1-10.8-76.1-50.4-76.1-96.4V51.8h-32.1c-8.3,35.5-36.5,63.7-73,72.8v173.7h20
		C397.8,298.2,407.6,307.4,408.5,319.9z M136.8,319.9h137.8c0.9-12.5,10.7-21.7,23.5-21.7H318V124.8c-35.5-8.3-63.7-36.5-72.8-73
		h-32.3v128.7c0,45.2-32.6,85.5-76.1,96.4C136.8,276.9,136.8,319.9,136.8,319.9z"/>
</g>
</svg>
