<?xml version="1.0" encoding="utf-8"?>
<!-- Generator: Adobe Illustrator 20.1.0, SVG Export Plug-In . SVG Version: 6.00 Build 0)  -->
<svg version="1.1" id="Layer_1" xmlns="http://www.w3.org/2000/svg" xmlns:xlink="http://www.w3.org/1999/xlink" x="0px" y="0px"
	 viewBox="0 0 683 600" style="enable-background:new 0 0 683 600;" xml:space="preserve">
<style type="text/css">
	.st0{fill:#E1D55A;}
</style>
<g>
	<path class="st0" d="M341.5,4.9C178.8,4.9,46.4,137.3,46.4,300s132.4,295.1,295.1,295.1S636.6,462.7,636.6,300S504.2,4.9,341.5,4.9
		z M563.9,262.1C469.8,246,395.5,171.7,379.5,77.6C473.5,93.6,547.9,168,563.9,262.1z M303.5,77.6c-16,94.1-90.3,168.4-184.4,184.5
		C135.1,168,209.5,93.6,303.5,77.6z M341.5,525.7c-113.5,0-207.6-84.2-223.3-193.4c96.8-12.2,179.2-71.4,223.3-154
		c44.2,82.6,126.5,141.8,223.3,154C549.1,441.5,455,525.7,341.5,525.7z"/>
	<g>
		<path class="st0" d="M341.5,454.9c-44,0-85.5-17.1-116.6-48.3c-13.6-13.5-13.6-35.5,0-49.1c13.6-13.5,35.5-13.5,49.1,0
			c18,18,42,28,67.5,28s49.5-9.9,67.5-28c13.6-13.5,35.5-13.5,49.1,0c13.6,13.6,13.6,35.5,0,49.1C427,437.8,385.5,454.9,341.5,454.9
			z"/>
	</g>
</g>
</svg>
